<svg xmlns="http://www.w3.org/2000/svg" viewBox="0 0 1920 1080">
  <defs>
    <linearGradient id="bg" x1="0" y1="0" x2="1" y2="1">
      <stop offset="0%" stop-color="#0b0f1a"/>
      <stop offset="55%" stop-color="#121a2a"/>
      <stop offset="100%" stop-color="#1c1f33"/>
    </linearGradient>
    <radialGradient id="glowA" cx="0.2" cy="0.2" r="0.45">
      <stop offset="0%" stop-color="#f472b6" stop-opacity="0.45"/>
      <stop offset="100%" stop-color="#0b0f1a" stop-opacity="0"/>
    </radialGradient>
    <radialGradient id="glowB" cx="0.85" cy="0.25" r="0.4">
      <stop offset="0%" stop-color="#60a5fa" stop-opacity="0.35"/>
      <stop offset="100%" stop-color="#0b0f1a" stop-opacity="0"/>
    </radialGradient>
    <linearGradient id="band" x1="0" y1="0" x2="1" y2="0">
      <stop offset="0%" stop-color="#f97316" stop-opacity="0.6"/>
      <stop offset="50%" stop-color="#ec4899" stop-opacity="0.35"/>
      <stop offset="100%" stop-color="#60a5fa" stop-opacity="0.5"/>
    </linearGradient>
  </defs>
  <rect width="1920" height="1080" fill="url(#bg)"/>
  <rect width="1920" height="1080" fill="url(#glowA)"/>
  <rect width="1920" height="1080" fill="url(#glowB)"/>
  <path d="M0 700 C 400 620 620 780 980 730 C 1320 680 1500 580 1920 620 L1920 1080 L0 1080 Z" fill="#0f172a" opacity="0.7"/>
  <path d="M0 580 C 420 520 700 610 1040 560 C 1380 510 1560 430 1920 470 L1920 640 C 1520 600 1220 700 860 670 C 520 640 300 540 0 590 Z" fill="url(#band)" opacity="0.55"/>
  <circle cx="260" cy="180" r="90" fill="#f8fafc" opacity="0.04"/>
  <circle cx="1520" cy="140" r="140" fill="#f8fafc" opacity="0.05"/>
  <circle cx="1680" cy="780" r="180" fill="#f8fafc" opacity="0.03"/>
</svg>
